<svg height="27" viewBox="0 0 135 27" width="135" xmlns="http://www.w3.org/2000/svg"><path d="m48.73 13.592a4.944 4.944 0 0 0 .207 1.481c.116.423.312.82.576 1.167.252.314.571.565.934.735a3.18 3.18 0 0 0 2.5 0c.368-.167.692-.418.946-.735.264-.348.46-.744.576-1.167.144-.48.214-.98.208-1.481a5.027 5.027 0 0 0 -.208-1.494 3.517 3.517 0 0 0 -.576-1.166 2.574 2.574 0 0 0 -.945-.735 3.112 3.112 0 0 0 -2.501 0 2.54 2.54 0 0 0 -.934.746c-.264.348-.46.744-.576 1.167-.143.48-.213.98-.208 1.482zm8.54 0a7.136 7.136 0 0 1 -.427 2.531 5.258 5.258 0 0 1 -1.152 1.82c-.5.496-1.103.874-1.764 1.109a6.19 6.19 0 0 1 -2.2.373 6.088 6.088 0 0 1 -2.168-.373 5.027 5.027 0 0 1 -1.775-1.109 5.281 5.281 0 0 1 -1.152-1.82 6.888 6.888 0 0 1 -.438-2.531 6.604 6.604 0 0 1 .45-2.532 5.406 5.406 0 0 1 1.221-1.832 4.904 4.904 0 0 1 1.775-1.166 6.146 6.146 0 0 1 2.12-.374 6.362 6.362 0 0 1 2.167.374c.667.25 1.27.65 1.764 1.166.508.522.9 1.146 1.152 1.832.3.809.446 1.668.427 2.532zm6.281 3.686a3.6 3.6 0 0 0 .876-.093c.199-.044.387-.127.553-.245a.744.744 0 0 0 .3-.362c.052-.15.08-.307.08-.466a1.088 1.088 0 0 0 -.518-.91 7.664 7.664 0 0 0 -1.775-.794 9.78 9.78 0 0 1 -1.152-.443 3.993 3.993 0 0 1 -.992-.63 2.947 2.947 0 0 1 -.703-.922 2.853 2.853 0 0 1 -.276-1.318c-.01-.479.089-.954.288-1.388a2.97 2.97 0 0 1 .83-1.062 3.787 3.787 0 0 1 1.29-.677 5.857 5.857 0 0 1 1.706-.233 6.836 6.836 0 0 1 3.308.782l-.726 1.983a7.143 7.143 0 0 0 -1.037-.432 4.786 4.786 0 0 0 -1.383-.186 2.578 2.578 0 0 0 -1.303.256.952.952 0 0 0 -.242 1.284c.109.153.246.284.404.385.196.115.4.216.61.303l.773.28c.576.222 1.083.432 1.51.642.398.184.763.432 1.083.735.281.279.498.617.634.991.148.44.219.901.207 1.365a2.93 2.93 0 0 1 -1.152 2.439 5.332 5.332 0 0 1 -3.308.863 9.247 9.247 0 0 1 -1.337-.082c-.403-.07-.75-.14-1.06-.221a6.253 6.253 0 0 1 -1.349-.549l.715-2.006c.39.21.805.375 1.233.49a6.107 6.107 0 0 0 1.798.221m15.651-9.286v2.158h-3.376v9.053h-2.513v-9.053h-3.377v-2.158zm2.79 11.211h2.523v-11.211h-2.524zm13.784 0a67.99 67.99 0 0 0 -2.305-3.803 39.192 39.192 0 0 0 -2.674-3.5v7.338h-2.49v-11.211h2.052c.357.361.75.793 1.153 1.318s.876 1.062 1.314 1.657c.437.595.898 1.166 1.336 1.82l1.245 1.82v-6.615h2.49v11.211h-2.11m11.318-9.298a3.068 3.068 0 0 0 -2.535.968 4.142 4.142 0 0 0 -.784 2.684c-.01.505.056 1.008.196 1.493.115.423.311.82.576 1.167.259.327.59.587.969.758.426.181.886.269 1.348.257h.726l.519-.059v-3.896h2.524v5.506c-.474.162-.96.287-1.452.374-.817.153-1.648.223-2.478.21a6.509 6.509 0 0 1 -2.305-.385 4.837 4.837 0 0 1 -1.74-1.167 5 5 0 0 1 -1.153-1.82 7.172 7.172 0 0 1 -.392-2.473 6.7 6.7 0 0 1 .438-2.497 5.387 5.387 0 0 1 1.152-1.832 5.226 5.226 0 0 1 1.787-1.166 6.133 6.133 0 0 1 2.19-.385 8.94 8.94 0 0 1 1.429.105c.37.059.735.14 1.095.245.255.076.506.17.749.28.151.067.297.145.438.233l-.634 2.112a7.028 7.028 0 0 0 -1.153-.479 4.888 4.888 0 0 0 -1.463-.198m7.007 9.228v-11.211h7.55v2.123h-5.037v2.193h4.471v2.077h-4.471v2.695h5.405v2.123zm14.384-9.181h-.911v3.033h.715a4.31 4.31 0 0 0 2.028-.35c.401-.245.636-.693.611-1.167a1.24 1.24 0 0 0 -.622-1.166 3.786 3.786 0 0 0 -1.821-.339m-.15-2.158a6.847 6.847 0 0 1 3.85.898 3.588 3.588 0 0 1 .806 4.667 3.68 3.68 0 0 1 -1.556 1.167c.22.28.461.595.703.956.242.362.496.735.738 1.167s.473.805.703 1.225.438.852.622 1.26h-2.812l-.622-1.167a24.799 24.799 0 0 0 -.646-1.096 38.43 38.43 0 0 0 -.657-1.015 9.234 9.234 0 0 0 -.645-.864h-1.245v4.095h-2.512v-11.048c.56-.11 1.125-.185 1.694-.222.588 0 1.153-.07 1.579-.07m-87.939.164h2.524v11.211h-2.523v-4.76h-4.218v4.76h-2.524v-11.211h2.524v4.293h4.218zm-40.339 4.631v-12.623l6.339 3.395v5.693h8.39l6.443 3.5zm16.447-4.585v-8.038l6.512 3.313v8.505zm0 15.435v-5.635h-8.46l-6.546-3.593 21.518.105v12.635zm-16.447 0v-8.248l6.339 3.71v7.852z" fill="#fff" fill-rule="evenodd"/></svg>